<?xml version="1.0" encoding="UTF-8"?>
<svg id="Layer_2" data-name="Layer 2" xmlns="http://www.w3.org/2000/svg" xmlns:xlink="http://www.w3.org/1999/xlink" viewBox="0 0 147.36 256.77">
  <defs>
    <style>
      .cls-1 {
        fill: none;
      }

      .cls-2, .cls-3 {
        fill: #f18aa5;
      }

      .cls-4 {
        font-size: 66.43px;
        letter-spacing: -.08em;
      }

      .cls-4, .cls-3 {
        font-family: MyriadPro-Bold, 'Myriad Pro';
        font-weight: 700;
      }

      .cls-4, .cls-5 {
        fill: #f4a6be;
      }

      .cls-6 {
        clip-path: url(#clippath-11);
      }

      .cls-7 {
        clip-path: url(#clippath-10);
      }

      .cls-8 {
        clip-path: url(#clippath-1);
      }

      .cls-9 {
        clip-path: url(#clippath-3);
      }

      .cls-10 {
        clip-path: url(#clippath-4);
      }

      .cls-11 {
        clip-path: url(#clippath-2);
      }

      .cls-12 {
        clip-path: url(#clippath-7);
      }

      .cls-13 {
        clip-path: url(#clippath-6);
      }

      .cls-14 {
        clip-path: url(#clippath-9);
      }

      .cls-15 {
        clip-path: url(#clippath-8);
      }

      .cls-16 {
        clip-path: url(#clippath-5);
      }

      .cls-17 {
        fill: #4f4d80;
      }

      .cls-3 {
        font-size: 14.85px;
        letter-spacing: -.06em;
      }

      .cls-18 {
        fill: #6998cc;
      }

      .cls-19 {
        clip-path: url(#clippath);
      }
    </style>
    <clipPath id="clippath">
      <polygon class="cls-1" points="45.74 31.11 45.74 31.11 57.7 31.11 57.7 43.07 45.74 43.07 45.74 31.11"/>
    </clipPath>
    <clipPath id="clippath-1">
      <polygon class="cls-1" points="100.22 31.11 100.22 31.11 88.26 31.11 88.26 43.07 100.22 43.07 100.22 31.11"/>
    </clipPath>
    <clipPath id="clippath-2">
      <polygon class="cls-1" points="40.51 91.65 40.51 91.65 69.42 91.65 69.42 102.12 40.51 102.12 40.51 91.65"/>
    </clipPath>
    <clipPath id="clippath-3">
      <polygon class="cls-1" points="106.12 91.65 106.12 91.65 77.21 91.65 77.21 102.12 106.12 102.12 106.12 91.65"/>
    </clipPath>
    <clipPath id="clippath-4">
      <polygon class="cls-1" points="25.57 184.62 25.57 184.62 70.73 184.62 70.73 256.77 25.57 256.77 25.57 184.62"/>
    </clipPath>
    <clipPath id="clippath-5">
      <polygon class="cls-1" points="121.79 184.62 121.79 184.62 76.63 184.62 76.63 256.77 121.79 256.77 121.79 184.62"/>
    </clipPath>
    <clipPath id="clippath-6">
      <polygon class="cls-1" points="122.9 80.27 122.9 80.27 147.36 80.27 147.36 202.21 122.9 202.21 122.9 80.27"/>
    </clipPath>
    <clipPath id="clippath-7">
      <rect class="cls-1" x="134.66" y="180.98" width="11.77" height="21.23"/>
    </clipPath>
    <clipPath id="clippath-8">
      <rect class="cls-1" x="122.9" y="180.98" width="11.77" height="21.23"/>
    </clipPath>
    <clipPath id="clippath-9">
      <polygon class="cls-1" points="24.46 80.27 24.46 80.27 0 80.27 0 202.21 24.46 202.21 24.46 80.27"/>
    </clipPath>
    <clipPath id="clippath-10">
      <rect class="cls-1" x=".93" y="180.98" width="11.77" height="21.23"/>
    </clipPath>
    <clipPath id="clippath-11">
      <rect class="cls-1" x="12.7" y="180.98" width="11.77" height="21.23"/>
    </clipPath>
  </defs>
  <rect class="cls-18" x="34.41" y="13.66" width="78.54" height="50.95" rx="8.54" ry="8.54"/>
  <path class="cls-18" d="M116.89,72.78H29.07c-2.21,0-4,1.79-4,4v31.4c3.66,66.3,8.65,70.81,15.44,70.81h65.61c14.77,0,8.16-14.12,14.77-79.86v-22.35c0-2.21-1.79-4-4-4Z"/>
  <path class="cls-18" d="M63.01,174.47h19.93v20.35c0,1.66-1.34,3-3,3h-13.93c-1.66,0-3-1.34-3-3v-20.35h0Z"/>
  <path class="cls-18" d="M82.74,58.47h-18.61c3.1,6.07,3.91,11.48,0,15.53h18.61c-3.39-3.46-2.76-8.96,0-15.53Z"/>
  <rect class="cls-5" x="32.6" y="84.99" width="81.68" height="22.2" rx="11" ry="11"/>
  <g>
    <path class="cls-17" d="M51.43,49.48c-7.13,0-12.93-5.8-12.93-12.93s5.8-12.93,12.93-12.93h43.76c7.13,0,12.93,5.8,12.93,12.93s-5.8,12.93-12.93,12.93h-43.76Z"/>
    <path class="cls-5" d="M95.19,25.63c6.04,0,10.93,4.89,10.93,10.93h0c0,6.04-4.89,10.93-10.93,10.93h-43.76c-6.04,0-10.93-4.89-10.93-10.93h0c0-6.04,4.89-10.93,10.93-10.93h43.76M95.19,21.63h-43.76c-8.23,0-14.93,6.7-14.93,14.93s6.7,14.93,14.93,14.93h43.76c8.23,0,14.93-6.7,14.93-14.93s-6.7-14.93-14.93-14.93h0Z"/>
  </g>
  <path class="cls-17" d="M62.02,0h22.85C89.28,0,92.86,3.58,92.86,8v.13c0,1.1-.9,2-2,2h-34.85c-1.1,0-2-.9-2-2v-.13C54.02,3.58,57.6,0,62.02,0Z"/>
  <g>
    <g id="_Mirror_Repeat_" data-name="&amp;lt;Mirror Repeat&amp;gt;">
      <g class="cls-19">
        <circle class="cls-2" cx="51.72" cy="37.09" r="5.98"/>
      </g>
    </g>
    <g id="_Mirror_Repeat_-2" data-name="&amp;lt;Mirror Repeat&amp;gt;">
      <g class="cls-8">
        <circle class="cls-2" cx="94.24" cy="37.09" r="5.98"/>
      </g>
    </g>
  </g>
  <g>
    <g id="_Mirror_Repeat_-3" data-name="&amp;lt;Mirror Repeat&amp;gt;">
      <g class="cls-11">
        <circle class="cls-17" cx="64.19" cy="96.88" r="5.23"/>
        <circle class="cls-17" cx="45.74" cy="96.88" r="5.23"/>
      </g>
    </g>
    <g id="_Mirror_Repeat_-4" data-name="&amp;lt;Mirror Repeat&amp;gt;">
      <g class="cls-9">
        <circle class="cls-17" cx="82.44" cy="96.88" r="5.23"/>
        <circle class="cls-17" cx="100.89" cy="96.88" r="5.23"/>
      </g>
    </g>
  </g>
  <g>
    <g id="_Mirror_Repeat_-5" data-name="&amp;lt;Mirror Repeat&amp;gt;">
      <g class="cls-10">
        <rect class="cls-17" x="36.75" y="184.62" width="21.35" height="52.19" rx="2" ry="2"/>
        <path class="cls-5" d="M35.57,239.21h25.16c5.52,0,10,4.48,10,10v7.56H25.57v-7.56c0-5.52,4.48-10,10-10Z"/>
      </g>
    </g>
    <g id="_Mirror_Repeat_-6" data-name="&amp;lt;Mirror Repeat&amp;gt;">
      <g class="cls-16">
        <rect class="cls-17" x="89.26" y="184.62" width="21.35" height="52.19" rx="2" ry="2" transform="translate(199.87 421.43) rotate(180)"/>
        <path class="cls-5" d="M76.63,239.21h45.16v7.56c0,5.52-4.48,10-10,10h-25.16c-5.52,0-10-4.48-10-10v-7.56h0Z" transform="translate(198.42 495.98) rotate(180)"/>
      </g>
    </g>
  </g>
  <g id="Layer_3" data-name="Layer 3">
    <text class="cls-4" transform="translate(30.89 158.14) scale(1.14 1)"><tspan x="0" y="0">BR</tspan></text>
    <text class="cls-3" transform="translate(33.41 174.47) scale(1.14 1)"><tspan x="0" y="0">BROOKLINE</tspan></text>
  </g>
  <g>
    <g id="_Mirror_Repeat_-7" data-name="&amp;lt;Mirror Repeat&amp;gt;">
      <g class="cls-13">
        <path class="cls-17" d="M131.88,80.27h12.48c1.66,0,3,1.34,3,3v34.91c0,1.1-.9,2-2,2h0c-9.09,0-16.48-7.38-16.48-16.48v-20.43c0-1.66,1.34-3,3-3Z" transform="translate(276.25 200.46) rotate(-180)"/>
        <rect class="cls-18" x="128.42" y="124.29" width="12.44" height="38.78" rx="2" ry="2" transform="translate(269.28 287.36) rotate(-180)"/>
        <circle class="cls-17" cx="134.64" cy="177.17" r="10.72"/>
        <g>
          <g id="_Mirror_Repeat_-8" data-name="&amp;lt;Mirror Repeat&amp;gt;">
            <g class="cls-12">
              <path class="cls-17" d="M144.66,180.98s1.41,2.61,1.66,5.74,0,11.66,0,11.66l-6.71,3.82s1.71-14.41-4.98-14.32,10.02-6.91,10.02-6.91Z"/>
            </g>
          </g>
          <g id="_Mirror_Repeat_-9" data-name="&amp;lt;Mirror Repeat&amp;gt;">
            <g class="cls-15">
              <path class="cls-17" d="M124.67,180.98s-1.41,2.61-1.66,5.74,0,11.66,0,11.66l6.71,3.82s-1.71-14.41,4.98-14.32-10.02-6.91-10.02-6.91Z"/>
            </g>
          </g>
        </g>
      </g>
    </g>
    <g id="_Mirror_Repeat_-10" data-name="&amp;lt;Mirror Repeat&amp;gt;">
      <g class="cls-14">
        <path class="cls-17" d="M16.48,80.27h0c1.1,0,2,.9,2,2v34.91c0,1.66-1.34,3-3,3H3C1.34,120.18,0,118.84,0,117.18v-20.43C0,87.66,7.38,80.27,16.48,80.27Z"/>
        <rect class="cls-18" x="6.5" y="124.29" width="12.44" height="38.78" rx="2" ry="2"/>
        <circle class="cls-17" cx="12.72" cy="177.17" r="10.72"/>
        <g>
          <g id="_Mirror_Repeat_-11" data-name="&amp;lt;Mirror Repeat&amp;gt;">
            <g class="cls-7">
              <path class="cls-17" d="M2.7,180.98s-1.41,2.61-1.66,5.74,0,11.66,0,11.66l6.71,3.82s-1.71-14.41,4.98-14.32c6.69.09-10.02-6.91-10.02-6.91Z"/>
            </g>
          </g>
          <g id="_Mirror_Repeat_-12" data-name="&amp;lt;Mirror Repeat&amp;gt;">
            <g class="cls-6">
              <path class="cls-17" d="M22.69,180.98s1.41,2.61,1.66,5.74,0,11.66,0,11.66l-6.71,3.82s1.71-14.41-4.98-14.32c-6.69.09,10.02-6.91,10.02-6.91Z"/>
            </g>
          </g>
        </g>
      </g>
    </g>
  </g>
</svg>